<?xml version="1.0" standalone="no"?>
<!DOCTYPE svg PUBLIC "-//W3C//DTD SVG 20010904//EN"
 "http://www.w3.org/TR/2001/REC-SVG-20010904/DTD/svg10.dtd">
<svg version="1.0" xmlns="http://www.w3.org/2000/svg"
 width="700.000000pt" height="700.000000pt" viewBox="0 0 700.000000 700.000000"
 preserveAspectRatio="xMidYMid meet">
<metadata>
Created by potrace 1.14, written by Peter Selinger 2001-2017
</metadata>
<g transform="translate(0.000000,700.000000) scale(0.100000,-0.100000)"
fill="#000000" stroke="none">
<path d="M5887 6664 c-1 -1 -32 -4 -69 -8 -103 -9 -136 -15 -233 -42 -465
-128 -917 -494 -1157 -934 -95 -176 -173 -424 -194 -620 -7 -66 -7 -245 0
-290 2 -14 7 -45 10 -70 4 -25 7 -47 7 -50 -1 -3 15 -50 35 -105 49 -138 49
-138 24 -208 -60 -165 -253 -380 -525 -585 -88 -66 -307 -202 -325 -202 -16 0
-118 69 -200 136 -289 234 -446 514 -507 904 -2 14 -5 97 -7 185 -3 88 -7 174
-11 190 -40 191 -124 353 -249 477 -26 26 -120 104 -209 173 -89 69 -169 131
-177 138 -30 24 -746 583 -834 650 -16 12 -93 72 -172 134 l-143 112 -67 -66
-68 -66 95 -90 c51 -49 135 -127 184 -172 50 -46 115 -107 146 -137 30 -29
113 -107 184 -173 70 -66 148 -140 174 -163 25 -24 97 -92 160 -150 63 -59
129 -120 146 -137 17 -16 94 -88 170 -160 77 -71 152 -141 166 -155 14 -14 57
-54 94 -89 l68 -63 -87 -87 -86 -86 -769 769 -769 769 -67 -67 c-36 -37 -65
-71 -63 -76 2 -6 346 -353 766 -773 l762 -762 -68 -69 c-38 -38 -73 -69 -77
-69 -4 0 -351 343 -770 761 -419 419 -764 762 -768 762 -4 0 -35 -28 -68 -61
l-61 -62 763 -763 763 -764 -39 -41 c-81 -84 -128 -129 -135 -129 -4 0 -31 26
-60 58 -29 31 -114 122 -190 202 -76 80 -152 161 -170 180 -18 19 -95 100
-170 180 -76 80 -150 159 -166 175 -15 17 -91 98 -169 180 -79 83 -162 170
-185 195 -23 25 -101 108 -174 184 -72 76 -145 154 -162 172 -17 19 -33 34
-37 34 -4 0 -38 -31 -76 -69 l-69 -69 21 -30 c12 -17 202 -257 422 -533 220
-277 439 -553 487 -613 316 -403 355 -443 513 -521 148 -73 221 -88 470 -100
136 -6 280 -33 387 -71 238 -85 475 -261 666 -498 l72 -89 -1147 -1148 c-1298
-1298 -1217 -1206 -1217 -1363 0 -110 36 -190 126 -277 98 -97 201 -134 318
-116 127 19 70 -33 1276 1172 614 613 1121 1114 1126 1113 6 -2 508 -502 1117
-1111 1236 -1235 1151 -1159 1298 -1164 232 -7 398 186 358 417 -17 101 -1 84
-1209 1292 l-1153 1154 67 101 c237 359 476 588 694 663 l57 19 83 -33 c130
-53 246 -73 414 -74 364 -1 752 145 1064 399 99 82 249 239 332 349 325 432
430 892 296 1309 -109 342 -444 631 -805 695 -66 12 -241 26 -248 20z m-377
-472 c-108 -100 -465 -454 -496 -492 -121 -151 -198 -300 -313 -610 -71 -190
-89 -244 -100 -301 l-8 -44 -12 44 c-7 25 -12 92 -12 150 1 107 3 130 15 211
4 25 10 59 12 75 15 94 79 295 121 380 112 225 346 437 648 588 58 29 209 86
230 86 6 0 -33 -39 -85 -87z"/>
</g>
</svg>
